<svg width="31" height="31" viewBox="0 0 31 31" fill="none" xmlns="http://www.w3.org/2000/svg">
<path d="M15.6666 3.18732C8.90465 3.18732 3.35398 8.73799 3.35398 15.5C3.35398 22.262 8.90465 27.8127 15.6666 27.8127C22.4286 27.8127 27.9793 22.262 27.9793 15.5C27.9793 8.73799 22.4286 3.18732 15.6666 3.18732ZM15.6666 0.166656C24.1613 0.166656 31 7.00532 31 15.5C31 23.9947 24.1613 30.8333 15.6666 30.8333C7.17198 30.8333 0.333313 23.9947 0.333313 15.5C0.333313 7.00532 7.17198 0.166656 15.6666 0.166656ZM18.5493 14.7793L21.8 18.0147V9.36666H13.152L16.3873 12.6173L8.76665 20.2533L10.9133 22.4" fill="#B54E4A"/>
</svg>
